#!OML:ASF H:\ManfredETheater\Project 1\Capture day 1\Session 1\subject.ASF
:FULLY-SPECIFIED
:DEGREES
126
root 1.64062 16.7609 -18.7503 -160.241 -5.63928 181.446
lowerback 10.7514 0.620291 3.4026
upperback -2.7981 1.4218 2.30011
thorax -9.01938 0.533875 0.28206
lowerneck -25.457 -4.67068 -4.08994
upperneck 10.6648 -5.28635 1.60885
head 7.49921 -2.58699 0.467285
rclavicle -1.76918e-014 1.11319e-014
rhumerus -37.226 14.1516 -91.5449
rradius 126.866
rwrist -14.7915
rhand -19.9533 13.9248
rfingers 7.12502
rthumb 6.38489 -15.9589
lclavicle -1.76918e-014 1.11319e-014
lhumerus -69.9953 -13.1828 96.1921
lradius 97.4065
lwrist 16.2824
lhand -16.7476 -10.2672
lfingers 7.12502
lthumb 9.4789 19.4996
rfemur -7.68945 0.0557416 31.8644
rtibia 35.4946
rfoot -19.28 -8.67193
rtoes -30.3979
lfemur -62.997 -0.435303 -14.7589
ltibia 94.9543
lfoot -9.17298 -2.97556
ltoes -0.683173
127
root 1.63134 16.8455 -19.4434 -160.226 -5.72077 181.55
lowerback 10.1312 0.930726 3.84376
upperback -2.89208 1.85031 2.0493
thorax -8.73034 0.714773 -0.300559
lowerneck -25.333 -5.086 -4.37844
upperneck 10.9165 -5.7866 1.88069
head 7.5955 -2.80371 0.533634
rclavicle 1.5704e-014 -3.02153e-014
rhumerus -37.072 14.976 -90.903
rradius 129.705
rwrist -14.1168
rhand -19.583 14.3559
rfingers 7.12502
rthumb 6.74236 -15.5167
lclavicle 1.5704e-014 -3.02153e-014
lhumerus -72.2677 -13.4339 96.1758
lradius 98.999
lwrist 16.7796
lhand -16.4443 -10.1946
lfingers 7.12502
lthumb 9.7715 19.5587
rfemur -4.27774 -0.158434 31.7428
rtibia 32.5328
rfoot -13.5638 -6.31362
rtoes -30.2787
lfemur -64.0025 -0.81349 -15.0874
ltibia 91.234
lfoot -10.3409 -2.76149
ltoes -1.45863
128
root 1.62037 16.9331 -20.1439 -160.237 -5.83108 181.677
lowerback 9.4706 1.20482 4.28669
upperback -2.96339 2.22263 1.83243
thorax -8.38684 0.872164 -0.827367
lowerneck -25.1912 -5.43497 -4.62599
upperneck 11.1411 -6.21106 2.12105
head 7.67806 -2.98668 0.593567
rclavicle -3.77691e-015 -1.11319e-014
rhumerus -36.9803 15.7831 -90.1819
rradius 132.253
rwrist -13.4185
rhand -19.1614 14.7701
rfingers 7.12502
rthumb 7.14937 -15.0891
lclavicle -3.77691e-015 -1.11319e-014
lhumerus -74.3988 -13.4 96.0177
lradius 100.404
lwrist 17.1005
lhand -16.3571 -10.1244
lfingers 7.12502
lthumb 9.85566 19.6249
rfemur -0.914727 -0.415475 31.5953
rtibia 29.4933
rfoot -6.39604 -4.43883
rtoes -29.1825
lfemur -64.6825 -1.19698 -15.3519
ltibia 87.1784
lfoot -11.4472 -2.77103
ltoes -2.10038
129
root 1.60872 17.0193 -20.8497 -160.29 -5.97723 181.825
lowerback 8.79263 1.43607 4.7096
upperback -3.00823 2.52893 1.6585
thorax -8.00317 1.0028 -1.2769
lowerneck -25.0406 -5.71559 -4.82611
upperneck 11.3465 -6.55666 2.32235
head 7.74932 -3.13485 0.644083
rclavicle 2.92213e-014 9.54166e-015
rhumerus -36.9318 16.5461 -89.3894
rradius 134.46
rwrist -12.7767
rhand -18.731 15.1406
rfingers 7.12502
rthumb 7.56482 -14.7041
lclavicle 2.92213e-014 9.54166e-015
lhumerus -76.3724 -13.1061 95.7294
lradius 101.621
lwrist 17.2957
lhand -16.4536 -10.0487
lfingers 7.12502
lthumb 9.76251 19.705
rfemur 2.44821 -0.652301 31.4507
rtibia 26.341
rfoot 2.02361 -3.57383
rtoes -26.9677
lfemur -65.0587 -1.5833 -15.5574
ltibia 82.8446
lfoot -12.4916 -3.01244
ltoes -2.80454
130
root 1.59598 17.0846 -21.5524 -160.38 -6.15616 181.973
lowerback 8.11713 1.62227 5.0842
upperback -3.03333 2.765 1.52404
thorax -7.60281 1.10539 -1.6395
lowerneck -24.8855 -5.9297 -4.98789
upperneck 11.5495 -6.82351 2.49499
head 7.81528 -3.24732 0.690074
rclavicle 1.03368e-014 2.06736e-014
rhumerus -36.912 17.2345 -88.5384
rradius 136.272
rwrist -12.2836
rhand -18.3498 15.4381
rfingers 7.12502
rthumb 7.93269 -14.3931
lclavicle 1.03368e-014 2.06736e-014
lhumerus -78.1785 -12.5949 95.3317
lradius 102.662
lwrist 17.4268
lhand -16.708 -9.94065
lfingers 7.12502
lthumb 9.51706 19.8244
rfemur 5.78569 -0.794614 31.3367
rtibia 23.1876
rfoot 11.0611 -3.87561
rtoes -23.3071
lfemur -65.2896 -1.98246 -15.7318
ltibia 78.373
lfoot -13.4382 -3.47333
ltoes -3.6095
131
root 1.58541 17.1533 -22.2585 -160.513 -6.36174 182.113
lowerback 7.47751 1.76562 5.39615
upperback -3.04041 2.93596 1.42862
thorax -7.21027 1.182 -1.9125
lowerneck -24.7407 -6.08497 -5.11463
upperneck 11.7626 -7.01931 2.63687
head 7.88216 -3.32787 0.729965
rclavicle 4.33351e-014 1.82882e-014
rhumerus -36.895 17.8239 -87.631
rradius 137.641
rwrist -12.0178
rhand -18.0667 15.6344
rfingers 7.12502
rthumb 8.20598 -14.1863
lclavicle 4.33351e-014 1.82882e-014
lhumerus -79.7948 -11.9199 94.848
lradius 103.546
lwrist 17.5284
lhand -17.0613 -9.82761
lfingers 7.12502
lthumb 9.17616 19.9527
rfemur 9.05102 -0.787444 31.2911
rtibia 20.1735
rfoot 19.5956 -4.81303
rtoes -18.8221
lfemur -65.2206 -2.37582 -15.882
ltibia 73.6989
lfoot -14.3344 -4.13704
ltoes -4.60316
132
root 1.5779 17.2134 -22.9615 -160.677 -6.58998 182.232
lowerback 6.91286 1.86895 5.61951
upperback -3.04511 3.04825 1.36692
thorax -6.86746 1.23466 -2.09263
lowerneck -24.6104 -6.19102 -5.21327
upperneck 11.9987 -7.15419 2.74847
head 7.95516 -3.38135 0.763408
rclavicle -1.51076e-014 3.18055e-015
rhumerus -36.8773 18.2944 -86.6887
rradius 138.527
rwrist -12.0221
rhand -17.9107 15.6979
rfingers 7.12502
rthumb 8.35656 -14.1168
lclavicle -1.51076e-014 3.18055e-015
lhumerus -81.2216 -11.1347 94.3068
lradius 104.307
lwrist 17.615
lhand -17.4389 -9.72673
lfingers 7.12502
lthumb 8.81182 20.0693
rfemur 12.0765 -0.599142 31.3529
rtibia 17.6804
rfoot 26.6737 -5.52209
rtoes -13.7585
lfemur -64.9639 -2.75975 -16.0301
ltibia 68.9464
lfoot -15.1281 -4.96553
ltoes -5.6815
133
root 1.57454 17.2648 -23.6595 -160.869 -6.83014 182.33
lowerback 6.44022 1.94046 5.7572
upperback -3.04454 3.11636 1.33275
thorax -6.58071 1.26934 -2.19282
lowerneck -24.5022 -6.26187 -5.29318
upperneck 12.25 -7.24475 2.83816
head 8.03383 -3.41527 0.792252
rclavicle 1.11319e-014 3.26007e-014
rhumerus -36.8466 18.6312 -85.7424
rradius 138.901
rwrist -12.2495
rhand -17.8746 15.6233
rfingers 7.12502
rthumb 8.3914 -14.19
lclavicle 1.11319e-014 3.26007e-014
lhumerus -82.4335 -10.2933 93.7343
lradius 104.979
lwrist 17.678
lhand -17.7597 -9.64831
lfingers 7.12502
lthumb 8.50228 20.1605
rfemur 14.6757 -0.25397 31.544
rtibia 16.1102
rfoot 31.7057 -5.44864
rtoes -8.24826
lfemur -64.5347 -3.1061 -16.1913
ltibia 64.1657
lfoot -15.759 -5.89136
ltoes -6.80342
134
root 1.57589 17.3073 -24.3505 -161.072 -7.07448 182.421
lowerback 6.0762 1.98719 5.82622
upperback -3.04691 3.15414 1.31986
thorax -6.36656 1.29065 -2.23303
lowerneck -24.4216 -6.3073 -5.3566
upperneck 12.508 -7.30418 2.91351
head 8.11697 -3.43524 0.817504
rclavicle -2.70347e-014 -1.82882e-014
rhumerus -36.8221 18.8267 -84.8484
rradius 138.761
rwrist -12.6307
rhand -17.9152 15.4138
rfingers 7.12502
rthumb 8.35218 -14.401
lclavicle -2.70347e-014 -1.82882e-014
lhumerus -83.4242 -9.42502 93.158
lradius 105.599
lwrist 17.6848
lhand -17.9655 -9.62947
lfingers 7.12502
lthumb 8.3036 20.1873
rfemur 16.4978 0.172275 31.8607
rtibia 16.1572
rfoot 34.2479 -4.5512
rtoes -3.17887
lfemur -63.9785 -3.38531 -16.3745
ltibia 59.4749
lfoot -16.1909 -6.80186
ltoes -7.95784
135
root 1.58227 17.3403 -25.0332 -161.278 -7.31226 182.52
lowerback 5.82263 2.01831 5.84512
upperback -3.04875 3.17628 1.32391
thorax -6.22014 1.30485 -2.2305
lowerneck -24.3693 -6.33969 -5.40609
upperneck 12.7441 -7.3495 2.98445
head 8.19604 -3.44869 0.840784
rclavicle -6.36111e-015 -7.95139e-015
rhumerus -36.8141 18.8805 -84.0629
rradius 138.116
rwrist -13.0441
rhand -17.9838 15.0939
rfingers 7.12502
rthumb 8.28597 -14.7236
lclavicle -6.36111e-015 -7.95139e-015
lhumerus -84.1758 -8.55584 92.6081
lradius 106.188
lwrist 17.5942
lhand -18.0251 -9.67592
lfingers 7.12502
lthumb 8.24607 20.1432
rfemur 17.4305 0.602328 32.2832
rtibia 18.0219
rfoot 34.4607 -3.24414
rtoes 0.8469
lfemur -63.3331 -3.5606 -16.5919
ltibia 54.9957
lfoot -16.3969 -7.57826
ltoes -9.04794
